<svg width="7773" height="3000" viewBox="0 0 7773 3000" fill="none" xmlns="http://www.w3.org/2000/svg">
<path d="M3747.82 2687.98C2559.54 2162.72 1968.27 680.958 1821.17 5.73331H7504.25C7619.06 -33.015 7830.6 106.909 7758.27 976.593C7685.94 1846.28 6531.24 2531.55 5962.93 2765.47C5719.68 2958.5 4936.1 3213.23 3747.82 2687.98Z" fill="#7F0000" fill-opacity="0.16"/>
<path d="M4173.49 1991.23C5184.39 1651.97 5989.64 530.995 6265.9 12.9161H438.584C406.294 12.9161 282.73 128.3 46.7959 589.835C-248.122 1166.75 922.938 1991.23 1545.06 2311.98C2167.19 2632.73 2909.86 2415.31 4173.49 1991.23Z" fill="#7F0000" fill-opacity="0.24"/>
<path d="M2137.61 1366.95C1689.86 1148.24 1246.4 364.521 1080.65 0H6033.97L5950.01 202.352L5674.47 615.667C5539.57 764.202 5183.66 1112.94 4839.23 1319.59C4494.8 1526.25 3983.9 1576.48 3771.5 1575.76C3413.44 1597.29 2585.37 1585.67 2137.61 1366.95Z" fill="#7F0000" fill-opacity="0.2"/>
<path d="M2303.37 122.703L2251.71 0H6578.6L6430.06 167.909C6312.38 287.742 6006.85 569.6 5726.14 738.37C5375.25 949.333 4955.48 975.165 4242.94 966.555C3672.91 959.666 2712.38 401.117 2303.37 122.703Z" fill="#7F0000" fill-opacity="0.18"/>
</svg>
