<?xml version="1.0" encoding="UTF-8"?>
<svg id="Layer_1" xmlns="http://www.w3.org/2000/svg" version="1.1" viewBox="0 0 1440 810">
  <!-- Generator: Adobe Illustrator 29.6.0, SVG Export Plug-In . SVG Version: 2.1.1 Build 142)  -->
  <defs>
    <style>
      .st0 {
        fill: #bc7b81;
      }

      .st1 {
        fill: #cd9ea1;
      }

      .st2 {
        fill: #cd9fa1;
      }

      .st3 {
        fill: #cd9ea0;
      }

      .st4 {
        fill: #cea1a3;
      }

      .st5 {
        fill: #cea0a1;
      }

      .st6 {
        fill: #e8d2d3;
      }

      .st7 {
        fill: #e1c3c3;
      }

      .st8 {
        fill: #d1a5a6;
      }

      .st9 {
        fill: #fffbfa;
      }

      .st10 {
        fill: #b9767a;
      }

      .st11 {
        fill: #b56c71;
      }

      .st12 {
        fill: #c2898c;
      }

      .st13 {
        fill: #bf8487;
      }

      .st14 {
        fill: #ca979c;
      }

      .st15 {
        fill: #d1a6a7;
      }

      .st16 {
        fill: #cb9b9d;
      }
    </style>
  </defs>
  <rect class="st9" x="0" width="1440" height="810"/>
  <path class="st11" d="M1216.5,0c-28.21,50.86-68.9,93.38-112.5,131.25-1.66.6-3.12,1.92-4.5,3-7.91,1.47-15.41,4.85-23.09,7.28-90.43,28.66-183.14,36.13-277.66,29.47.26-4.15-4.32-2.94-6-4.87-1-1.15-.52-3.03-1.47-3.77s-3.41-.34-4.36-1.27c-.65-.64-1.21-3.8-2.4-5.27-.88-1.09-2.45-1.35-3.35-2.86-1.07-1.8-.79-4.72-2.24-6-1-.88-2.9-.87-4.14-1.86-7.66-6.09-16.2-9.08-23.31-16.44-1.8-1.12-10.43-5.61-11.29-6.71-1.18-1.51-.86-4.67-.35-6.49l4.92-.71c.69-3.45-3.14-3.22-5.02-4.73-3.76-3.01-5.57-5.26-9.75-8.24-.95-.68-1.98-3.63-3.29-4.59-2.79-2.05-13.97-5.3-12.03-9.84,1.36-3.17,3.75-3.41,6.74-4.2.25-.39.28-5.37.09-6.15-.14-.55-2.67-.53-.75-4.25l-3.73.74c-1.33-5.05-6.61-10.79-12.02-11.25l.36-5.25h4.15l1.53-8.23c.9-.64,4.48,2.63,4.51-1.86.04-4.96-2.6-2.61-4.56-3.75-.99-.58-.96-2.47-1.68-3.21-2.02-2.07-5.1-.27-5.82-5.81s.68-3.36,2.55-4.81c.27-.21,2.68-4.21,3.88-5.28,1.53-1.37,4.02-.72,3.33-3.79l-2.99.75c2.13-5.31-6.11-6.4-6.59-7.95-.2-.65.26-4.2.63-5.07,1.44-3.34,5.68-3.86,5.96-7.98h506.25-.01Z"/>
  <path class="st6" d="M1440,161.25v37.5c-1.47-.02-2.09,1.01-3.01,1.86-19.03,17.5-37.19,36.35-56.24,53.64-3.7-.51-7.24,3.41-10.31,4.31-9.22,2.7-19.82,4.3-29.33,6.67-61.8,15.39-123,31.62-185.16,47.34-144.97,36.65-291.29,73.25-436.73,110.02-47.66,12.05-94.42,24.87-142.49,36.01-1.09.25-2.2,1.47-3.51,1.74-2.8.57-5.83-.54-8.46.92-25.96-10.87-49.77-22.59-75.01-34.86-1.41-.69-2.92-2.27-3.74-2.64-.25-2.26,1.43-1.35,2.55-1.55,14.9-2.58,29.95-4.32,44.84-6.94,106.85-18.79,212.03-50.65,311.11-94.26,16.55-7.28,33.27-14.55,49.5-22.5l546-137.25h-.01Z"/>
  <path class="st13" d="M214.5,0c-2.94,4.08,1.11,7.04-3.68,9.46-.79,2.98,8.43,5.55,10.46,6.63,1.91,1.03,10.4,5.45,8.19,7.87-3.71-.57-6.22,2.77-5.87,5.94l13.35,6.51c2.46,2.24,1.66,5.64,2.99,7.51.6.84,10.96,9.39,12.89,11.11,1.15,1.03,7.92,5.77,8.23,6.2,1.1,1.53.52,5.05,2.53,7.05,2.39,2.36,7.72,3.85,10.43,5.32,2.87,1.56,2.87,4.93,6.92,5.12.63.8-1.49,3.49,1.08,5.64l27.97,11.78c2.35,1.72,8.58,5.7,4.24,7.82-.06.67-.12,1.44.13,2.06,1.87,4.61,31.95,13.93,38.14,16.62,14.82,6.44,24.06,16.55,37.48,23.27,17.72,8.88,37.32,14.22,55.28,23.47,2.35,1.21,5.6,4.36,7.71,5.04,1.47.47,3.58.02,4.39.49,1.59.92,5.04,5.38,8.45,6.2,6.19,1.48,15.78,5.7,22.22,8.5,8.32,3.61,16.65,8.31,24.98,11.77,2.61,1.08,11.2,5.09,12.52,5.48,1.98.59,4.61-.11,7.03.47,2.12.51,3.08,2.19,4.23,2.52,1.56.45,3.36-.1,4.92.33,22.23,6.14,43.62,16.05,66.5,22.75,17.74,5.2,36.95,8.92,55.38,14.37,28.27,8.35,56.56,19.72,86.06,24.94,1.31.23,2.83-.35,3.36,1.52-41.92,3.84-82.16,4.96-124.5,5.25h-5.25c-3.24.01-6.51,0-9.75,0h-2.25l-95.66-.72c-1.77-.04-3.41-.76-5.19-.81-34.68-.99-69.09-2.69-103.31-8.44-14.84-2.49-29.38-6.65-44.09-9.53-56.94-16.1-108.1-45.1-154.1-81.77-3.52-2.8-6.57-6.66-10.9-8.23-1.54-2.27-4.39-5.05-6-7.5-17.35-26.4-32.11-54.41-46.5-82.5l-19.31-46.31C123.04,22.11,117.18,11.4,115.51,0h99,0Z"/>
  <path class="st13" d="M306,0c-1.12,4,2.14,5.29,3.32,7.55.84,1.62.82,3.88,1.77,5.73,3.14,6.09,33.68,22.75,41.37,26.88,45.13,24.22,93.04,44.08,141.03,61.85,23.78,8.8,47.66,17.39,72,24.75.56,3.34,6.59,3.27,9,4.13,3.03,1.08,6.32,2.93,9.59,3.91,2.94.89,5.77-.68,7.03,3.87l3.21-.61c1.75,4.23,1.75,2.16,4.43,3.06,1.04.35,1.08,1.74,1.79,2.15,2.02,1.17,4.49,1.45,6.4,2.4,25.96,12.9,56,24.55,84.02,32.98,4.08,1.23,11.01,5.66,15.87,7.38,28.45,10.01,57.62,17.06,85.17,27.33,11.82,4.4,19.39,7.65,32.05,9.98,16.81,3.09,34.39,7.12,51.39,10.83,5.69,1.24,14.61,2.49,19.07,5.85l12.98,2.23c-35.17,11.85-67.32,19.73-104.25,26.25-.47.08-1.03-.07-1.5,0-1.01.15-2.12-.29-3,.75-8.52-.83-29.03,3.56-39,4.5l-.38-1.5h-1.11v1.5c-1.72.16-3.53-.16-5.25,0-.53-1.86-2.05-1.29-3.36-1.52-29.5-5.21-57.79-16.58-86.06-24.94-18.43-5.45-37.64-9.16-55.38-14.37-22.88-6.71-44.27-16.61-66.5-22.75-1.56-.43-3.36.12-4.92-.33-1.15-.33-2.1-2.02-4.23-2.52-2.42-.58-5.05.12-7.03-.47-1.32-.39-9.91-4.4-12.52-5.48-8.33-3.46-16.67-8.15-24.98-11.77-6.43-2.8-16.03-7.02-22.22-8.5-3.41-.82-6.87-5.28-8.45-6.2-.81-.47-2.92-.02-4.39-.49-2.11-.68-5.36-3.83-7.71-5.04-17.95-9.26-37.56-14.6-55.28-23.47-13.42-6.72-22.66-16.83-37.48-23.27-6.19-2.69-36.26-12.01-38.14-16.62-.25-.62-.19-1.39-.13-2.06,4.34-2.12-1.89-6.1-4.24-7.82l-27.97-11.78c-2.57-2.15-.45-4.84-1.08-5.64-4.04-.19-4.04-3.55-6.92-5.12-2.71-1.48-8.05-2.96-10.43-5.32-2.01-1.99-1.43-5.52-2.53-7.05-.31-.43-7.07-5.17-8.23-6.2-1.93-1.72-12.29-10.27-12.89-11.11-1.32-1.87-.53-5.27-2.99-7.51l-13.35-6.51c-.35-3.16,2.15-6.51,5.87-5.94,2.2-2.42-6.28-6.85-8.19-7.87-2.03-1.09-11.25-3.65-10.46-6.63,4.79-2.42.73-5.38,3.68-9.46h91.51Z"/>
  <path class="st7" d="M213.75,192.75c15.59,21.22,32.47,41.34,50.25,60.75,6.35,6.93,12.91,13.58,19.5,20.25,16.38,16.58,34.04,34.05,52.12,48.76,2.69,2.19,7.14,6.17,10.13,7.49.61,1,1.86,2.75,3,3,.22.05.5-.01.75,0,.85.94,2.16,3.08,3,3.75-5.25-1.08-10.24-3.43-15.57-4.31-37.38-6.14-74.88-10.32-112.27-15.98-19.06-2.89-39.16-8.18-58.54-9.56-5.12-.36-3.13-.63-6.78-1.61-3.33-.89-7.97-.31-11.21-.79-44.85-6.69-89.58-13.82-134.35-20.9-1.71-.27-3.5.14-5.12-.13-3.96-.68-3-3.94-6.42-3.71-.66-1.04-.8-2.48-2.25-3v-117c3.07.14,6.21-.25,9.28.1,6.33.72,15.05,4.07,21.8,4.31,9.88.35,20.54,3.13,30.8,4.58,2.15.3,4.56-.3,6.7.05,1.95.32,2.92,1.86,3.96,2.07,3.18.64,10.79.44,14.74.98,3.34.46,6.75,2.55,9.28,2.73,10.95.78,21.66,2.01,32.72,3.27,3.71.42,6.56,2.41,9.93,2.82,2.69.33,6.53-.46,8.76.23,1.15.36,1.74,2.08,3.13,2.1,1.28.02,2.34-1.49,3.62-1.33,1,.13,3.24,1.71,5.49,1.99,13.54,1.7,26.85,3.77,39.86,5.89,2.4.39,4.97-.19,7.13.37,1.97.51,3.7,3.67,6.55,2.82h.01Z"/>
  <path class="st6" d="M1440,83.25v78l-546,137.25c22.71-11.13,44.8-23.52,66.75-36,34.52-19.63,66.77-40.06,99-63,13.84-9.85,27.94-19.44,41.25-30,.64,1.17,4.33-.97,5.01-1.36,5.07-2.91,4.52-2.13,9.8-3.73,1.83-.55,2.68-2.34,2.96-2.4,2.66-.57,6.36.37,9.42-.19,2.58-.48,3.56-2.31,4.83-2.67,1.74-.49,3.77.07,5.68-.32s3.73-2.29,5.59-2.66c2.61-.53,5.41.24,7.92-.33,1.94-.44,2.79-2.32,4.06-2.69,5.73-1.66,13.62-2.06,19.19-3.31,1.93-.43,2.81-2.34,4.06-2.69,2.59-.73,7.23-1.55,10.43-2.32,3.37-.82,6.7-.35,9.52-.98,1.93-.43,2.81-2.34,4.06-2.69,1.82-.52,4.1.02,6.28-.47,1.96-.45,3.36-2.16,4.98-2.52,2.75-.62,5.95.31,8.69-.31,1.94-.45,2.8-2.33,4.06-2.69,1.98-.57,4.16.02,6.78-.74,1.86-.54,2.66-2.33,2.96-2.39,2.66-.57,6.36.37,9.42-.19,2.58-.48,3.56-2.31,4.83-2.67,1.82-.51,4,0,6.24-.52,2.11-.49,3.25-2.57,3.5-2.62,2.62-.58,6.36.37,9.43-.19,2.45-.45,3.82-2.76,4.07-2.81,2.05-.44,4.4.22,7-.38,2.12-.49,3.26-2.56,3.5-2.62,4.41-.98,7.18,1.18,12.42-1.54,3.99-2.07,3.63-.76,7.52-1.63,1.94-.43,2.79-2.31,4.06-2.69,2.16-.63,4.97.15,7.3-.2s4.19-2.38,6.21-2.79c2.13-.43,4.33.15,6.43-.32s2.82-2.48,4.67-2.83c2.45-.47,5.48.42,8.08-.17,1.94-.45,2.8-2.33,4.06-2.69,1.98-.57,4.16.02,6.78-.74,1.86-.54,2.66-2.33,2.96-2.39,2.66-.57,6.36.37,9.42-.19,2.58-.48,3.56-2.31,4.83-2.67,3.08-.87,4.61.15,8.67-1.68,5.03-2.27,6.3-.62,11.11-1.79,2.11-.51,3.11-2.21,4.23-2.52,1.81-.51,4,0,6.24-.52,2.11-.49,3.25-2.57,3.5-2.62,2.62-.58,6.36.37,9.43-.19,2.45-.45,3.82-2.76,4.07-2.81,2.05-.44,4.4.22,7-.38,2.12-.49,3.25-2.56,3.5-2.62,3.4-.76,8.46.75,12.23-.76v-.05Z"/>
  <path class="st6" d="M1310.25,0h129.75v83.25c-3.76,1.52-8.83,0-12.23.76-.25.06-1.39,2.13-3.5,2.62-2.6.6-4.95-.06-7,.38-.25.05-1.62,2.36-4.07,2.81-3.06.57-6.8-.39-9.43.19-.25.06-1.39,2.14-3.5,2.62-2.24.52-4.43,0-6.24.52-1.12.32-2.11,2.01-4.23,2.52-4.81,1.17-6.08-.47-11.11,1.79-4.06,1.83-5.59.81-8.67,1.68-1.27.36-2.25,2.19-4.83,2.67-3.06.56-6.77-.38-9.42.19-.3.06-1.11,1.85-2.96,2.39-2.62.76-4.81.17-6.78.74-1.26.36-2.12,2.24-4.06,2.69-2.59.6-5.62-.29-8.08.17-1.85.35-2.66,2.38-4.67,2.83s-4.3-.11-6.43.32-3.91,2.44-6.21,2.79-5.14-.42-7.3.2c-1.28.37-2.13,2.25-4.06,2.69-3.89.87-3.53-.44-7.52,1.63-5.24,2.72-8.01.56-12.42,1.54-.25.05-1.39,2.13-3.5,2.62-2.6.6-4.95-.06-7,.38-.25.05-1.62,2.36-4.07,2.81-3.06.57-6.8-.39-9.43.19-.25.06-1.39,2.14-3.5,2.62-2.24.52-4.43,0-6.24.52-1.27.36-2.25,2.19-4.83,2.67-3.06.56-6.77-.38-9.42.19-.3.06-1.11,1.85-2.96,2.39-2.62.76-4.81.17-6.78.74-1.26.36-2.12,2.24-4.06,2.69-2.74.63-5.94-.31-8.69.31-1.62.37-3.02,2.07-4.98,2.52-2.18.5-4.45-.04-6.28.47-1.25.36-2.13,2.26-4.06,2.69-2.82.63-6.15.17-9.52.98s-7.84,1.59-10.43,2.32c-1.25.36-2.13,2.26-4.06,2.69-5.57,1.25-13.46,1.65-19.19,3.31-1.27.37-2.12,2.25-4.06,2.69-2.51.57-5.32-.2-7.92.33-1.86.37-3.73,2.29-5.59,2.66s-3.94-.17-5.68.32c-1.27.36-2.25,2.19-4.83,2.67-3.06.56-6.77-.38-9.42.19-.28.06-1.13,1.84-2.96,2.4-5.28,1.6-4.73.82-9.8,3.73-.68.39-4.37,2.54-5.01,1.36,20.49-16.26,41.25-34.62,60.39-52.48,6.23-5.81,12.17-13.27,18.36-18.77,1.84-1.64,3.93-3.17,6-4.5,3.55-2.27,7.84-3.91,11.48-6.15,40.67-25.06,79.69-53.27,113.02-87.6v.05Z"/>
  <path class="st7" d="M58.5,0c11.4,20.31,24.54,39.7,38.25,58.5,21.97,30.13,47.89,61.01,74.99,86.64,4.81,4.55,11.86,11.56,16.89,15.37,1.05.8,2.01,1.41,3.37,1.5,1.61,2.45,4.46,5.23,6,7.5,5.25,7.76,10.17,15.66,15.75,23.25-2.86.85-4.59-2.31-6.55-2.82-2.15-.56-4.73.02-7.13-.37-13.01-2.12-26.32-4.2-39.86-5.89-2.25-.28-4.49-1.87-5.49-1.99-1.28-.16-2.33,1.35-3.62,1.33-1.39-.02-1.98-1.75-3.13-2.1-2.24-.69-6.08.09-8.76-.23-3.38-.41-6.22-2.39-9.93-2.82-11.06-1.26-21.77-2.49-32.72-3.27-2.53-.18-5.94-2.27-9.28-2.73-3.94-.54-11.55-.34-14.74-.98-1.04-.21-2-1.75-3.96-2.07-2.15-.35-4.55.25-6.7-.05-10.26-1.45-20.92-4.23-30.8-4.58-6.76-.24-15.48-3.59-21.8-4.31-3.07-.35-6.21.04-9.28-.1V0h58.5Z"/>
  <path class="st11" d="M710.25,0c-.28,4.12-4.52,4.65-5.96,7.98-.38.87-.84,4.42-.63,5.07.48,1.54,8.73,2.64,6.59,7.95l2.99-.75c.7,3.07-1.8,2.42-3.33,3.79-1.2,1.08-3.62,5.08-3.88,5.28-1.86,1.45-3.25-.68-2.55,4.81.7,5.49,3.79,3.74,5.82,5.81.72.73.69,2.63,1.68,3.21,1.96,1.14,4.6-1.21,4.56,3.75-.03,4.5-3.62,1.22-4.51,1.86l-1.53,8.24h-4.15l-.36,5.25c5.41.46,10.69,6.2,12.02,11.25l3.73-.74c-1.93,3.72.61,3.7.75,4.25.19.78.17,5.76-.09,6.15-3,.79-5.38,1.03-6.74,4.2-1.95,4.54,9.23,7.79,12.03,9.84,1.31.96,2.34,3.91,3.29,4.59,4.19,2.98,6,5.23,9.75,8.24,1.88,1.51,5.71,1.27,5.02,4.73l-4.92.71c-.51,1.82-.83,4.98.35,6.49.86,1.1,9.49,5.59,11.29,6.71,7.12,7.36,15.65,10.34,23.31,16.44,1.24.99,3.14.98,4.14,1.86,1.46,1.28,1.18,4.2,2.24,6,.9,1.52,2.47,1.78,3.35,2.86,1.18,1.47,1.75,4.63,2.4,5.27.95.93,3.45.56,4.36,1.27s.47,2.62,1.47,3.77c1.68,1.93,6.26.72,6,4.87-36.46-2.57-73.84-7.51-110.25-14.25-.36-3.03-5.25-2.79-7.69-3.93-11.04-5.17-19.66-14.35-29.6-20.27-.88-.52-7.72-10.31-6.95-11.04h3.75l-.37-3.01c-6.04-5.45-11.31-11.76-17.66-16.84-1.17-.93-2.89-1-4.13-1.87-5.07-3.58-5.02-11.46-8.04-14.83-.65-.72-1.96-.43-2.61-1.15-2.23-2.44-6.21-12.04-8.42-15.2-2.01-2.88-6.58-4.65-6.65-8.95-.02-1.38.9-2.39.47-4.31-.66-2.91-3.36-4.83-4.16-6.36-.26-.51-2.94-7.17-3.03-7.57-.35-1.54.43-2.51.61-3.9l-3.04-1.26c-.1-2.18.26-4.41,0-6.58-.15-1.27-1.16-2.22-1.32-3.21-.2-1.28.76-2.41.31-3.98-.74-2.57-7.94-7.93-9.38-11.01-.5-1.91,2.26-3.06,2.77-5.26.46-1.97.04-4.2.16-6.22h126.75,0Z"/>
  <path class="st11" d="M583.5,0c-.12,2.02.3,4.25-.16,6.22-.51,2.2-3.27,3.35-2.77,5.26,1.44,3.07,8.65,8.44,9.38,11.01.45,1.57-.52,2.7-.31,3.98.16.99,1.16,1.93,1.32,3.21.26,2.18-.1,4.4,0,6.58l3.04,1.26c-.18,1.4-.96,2.37-.61,3.9.09.4,2.77,7.06,3.03,7.57.8,1.53,3.51,3.45,4.16,6.36.43,1.92-.49,2.92-.47,4.31.07,4.3,4.64,6.07,6.65,8.95,2.21,3.16,6.19,12.76,8.42,15.2.65.71,1.96.43,2.61,1.15,3.02,3.37,2.97,11.25,8.04,14.83,1.24.88,2.96.94,4.13,1.87,6.35,5.07,11.62,11.39,17.66,16.84l.37,3.01h-3.75c-.77.74,6.07,10.53,6.95,11.05,9.94,5.92,18.56,15.1,29.6,20.27,2.45,1.15,7.33.91,7.69,3.93-30.72-5.68-61.37-12.85-91.5-21,.62-1.9-2.92-2.96-3.75-1.5-.99-.27-1.99-.47-3-.75.1-1.81-1.11-1.92-2.23-2.64-8.67-5.62-15.31-12.45-22.48-20.28-3.01-3.29-6.1-5.13-8.6-9.39-4.41-7.5-7.33-9.39-12.01-15.74-3.11-4.22-5.11-9.78-8.66-13.84-2.35-2.68-7.67-5.29-9.67-9.08-2.38-4.51.19-8.5-1.77-12.49-1.57-3.21-13.59-10.95-11.49-14.05.9-1.33,3.48-.67,2.64-4.7-.27-1.32-12.06-9.34-13.51-11.48-.75-2.46,6.29-5.85,8.51-5.58,2.96-1.32-3.24-4.29-3.77-4.7-.48-.37-.62-1.55-1.3-2.04-2.66-1.94-8.66-2.79-7.91-7.5h85.52Z"/>
  <path class="st11" d="M498,0c-.75,4.7,5.25,5.56,7.91,7.5.68.49.82,1.67,1.3,2.04.53.41,6.73,3.38,3.77,4.7-2.22-.28-9.26,3.12-8.51,5.58,1.45,2.13,13.23,10.16,13.51,11.48.83,4.03-1.74,3.37-2.64,4.7-2.11,3.1,9.92,10.85,11.49,14.05,1.95,3.98-.61,7.98,1.77,12.49,2,3.79,7.32,6.4,9.67,9.08,3.56,4.05,5.55,9.62,8.66,13.84,4.68,6.35,7.61,8.23,12.01,15.74,2.5,4.26,5.59,6.11,8.6,9.39,7.17,7.83,13.82,14.66,22.48,20.28,1.12.73,2.33.83,2.23,2.64-8.23-2.29-16.57-4.28-24.75-6.75-24.34-7.36-48.22-15.95-72-24.75.34-1.98-1.05-1.49-2.06-2.03-7.39-3.87-8.06-5.53-13.73-10.3-2.34-1.97-9.19-5.52-9.69-8.31-.92-5.14.32-7.02-3.88-11.87-2.06-2.39-8.28-7.22-11.18-9.83-1.24-1.12-5.86-1.66-1.52-3.45l.07-1.08c-2.45-.61-1.03-2.37-1.92-4.09-3.06-5.94-10.62-8.97-12.71-13.57-1.45-3.19,1.33-3.41,1.77-5,.98-3.6-10.69-10.67-12.26-14.49-1.11-2.3.24-5.58-.51-7.74-.39-1.13-2.32-1.58-3.23-2.77-1.33-1.75-3.66-5.23-3.4-7.48h78.75Z"/>
  <path class="st11" d="M419.25,0c-.26,2.25,2.06,5.73,3.4,7.48.91,1.19,2.84,1.64,3.23,2.77.75,2.16-.6,5.44.51,7.74,1.57,3.82,13.24,10.89,12.26,14.49-.43,1.59-3.21,1.81-1.77,5,2.09,4.59,9.65,7.63,12.71,13.57.89,1.72-.54,3.48,1.92,4.09l-.07,1.08c-4.34,1.79.28,2.32,1.52,3.45,2.9,2.61,9.11,7.45,11.18,9.83,4.19,4.85,2.95,6.73,3.88,11.87.5,2.8,7.35,6.34,9.69,8.31,5.67,4.77,6.35,6.43,13.73,10.3,1.02.53,2.4.04,2.06,2.03-47.99-17.76-95.9-37.62-141.03-61.85-7.69-4.13-38.24-20.79-41.37-26.88-.95-1.84-.93-4.11-1.77-5.73-1.18-2.26-4.45-3.56-3.32-7.55h113.25-.01Z"/>
  <path class="st0" d="M1263,0c-17.9,25.32-37.26,49.8-58.11,72.76-5.56,6.12-11.72,11.86-17.27,17.98-.85.93-1.88,1.53-1.86,3.01-2.07,1.33-4.16,2.86-6,4.5-1.43-.1-2.56.47-3.78,1.09-24.07,12.3-46.59,22.74-71.97,31.91,43.6-37.87,84.29-80.39,112.5-131.25h46.5-.01Z"/>
  <path class="st5" d="M115.5,0c1.67,11.39,7.53,22.09,10.69,33.19l19.31,46.31c-5.18-3.53-10.77-4.98-16.64-6.98l-32.11-14.02C83.04,39.7,69.9,20.31,58.5,0h57Z"/>
  <path class="st14" d="M1310.25,0c-33.33,34.33-72.35,62.54-113.02,87.6-3.64,2.24-7.93,3.88-11.48,6.15-.02-1.48,1.02-2.08,1.86-3.01,5.56-6.12,11.72-11.86,17.27-17.98C1225.73,49.8,1245.1,25.32,1262.99,0h47.26Z"/>
  <path class="st6" d="M1380.75,254.25c-41.29,37.49-86.08,75.95-130.14,110.23-3.1,2.41-6.05,4.92-9.36,6.77-7.45,4.16-14.14,4.88-22.52,7.11-81.76,21.74-163.94,41.52-245.98,62.27-82.01,20.74-163.93,42.05-246.15,62.1-4.78,1.17-8.14,2.72-13.73,3.55-1.4.21-3.04-.94-2.62,1.47-50.74-11.22-97.7-26.47-145.5-46.5,2.63-1.46,5.66-.34,8.46-.92,1.31-.27,2.42-1.49,3.51-1.74,48.06-11.14,94.83-23.96,142.49-36.01,145.44-36.77,291.76-73.36,436.73-110.02,62.16-15.72,123.37-31.95,185.16-47.34,9.51-2.37,20.11-3.97,29.33-6.67,3.07-.9,6.62-4.82,10.31-4.31h0Z"/>
  <path class="st7" d="M2.25,279.75c3.42-.23,2.45,3.03,6.42,3.71,1.61.28,3.41-.14,5.12.13,44.77,7.08,89.5,14.2,134.35,20.9,3.23.48,7.88-.1,11.21.79,3.66.98,1.67,1.25,6.78,1.61,19.38,1.38,39.48,6.67,58.54,9.56,37.39,5.67,74.89,9.84,112.27,15.98,5.32.87,10.32,3.23,15.57,4.31,39.17,31.57,83.5,59.79,127.79,84.12,1.01.56,2.14.46,1.96,2.13-11.1.06-26.21,3.46-37.88,4.5-112.74,10.03-234.42,4.83-335.37-50.87-40.23-22.2-82.13-57.85-106.75-96.88h-.01Z"/>
  <path class="st6" d="M1241.25,371.25c-8.67,7.86-18.13,15.24-27.41,22.47-48.58,37.83-101.79,75.07-159.35,97.9-107.98,42.81-232.06,40.95-344.24,16.14-.42-2.41,1.22-1.26,2.62-1.47,5.59-.84,8.95-2.39,13.73-3.55,82.22-20.05,164.14-41.36,246.15-62.1,82.04-20.75,164.22-40.53,245.98-62.27,8.38-2.23,15.07-2.95,22.52-7.11h0Z"/>
  <path class="st15" d="M844.5,321c-99.08,43.61-204.27,75.48-311.11,94.26-14.89,2.62-29.95,4.36-44.84,6.94-1.11.19-2.8-.71-2.55,1.55-.78-.35-2.84-.76-3.75-.75.18-1.67-.94-1.57-1.96-2.13-44.29-24.33-88.62-52.55-127.79-84.12-.84-.67-2.15-2.81-3-3.75,18.03.75,37.34-1.17,55.91-1.46,19.84-.31,39.89,1.3,59.99,1.43,29.43.19,59.45-4.11,89.21-2.95,2.24.09,5.61,1.49,7.56,1.39,4.89-.25,10.14-.89,15.74-.69,6.27.22,19.52,2.92,25.13,1.19,11.52-3.55,25.52-2.35,37.87-2.69,13.83-.39,28.08-1.27,41.94-1.5,31.72-.52,63.07-2.16,94.61-3.65,17.15-.81,36.11,1.63,54.11-1.38l12.94-1.69h-.01Z"/>
  <path class="st13" d="M590.25,133.5c1.01.28,2.01.48,3,.75.92.25,2.22,1.09,3.75,1.5,30.13,8.15,60.78,15.32,91.5,21,36.41,6.74,73.79,11.68,110.25,14.25,94.52,6.66,187.22-.81,277.66-29.47,7.68-2.43,15.19-5.81,23.09-7.28-2.94,2.29-5.65,5.17-8.66,7.47-31.82,24.27-64.96,46.8-100.09,66.03-4.97.75-20.55,10.17-26.49,12.88-18.87,8.62-37.25,15.05-56.76,21.62l-12.98-2.23c-4.46-3.36-13.37-4.61-19.07-5.85-17-3.7-34.58-7.74-51.39-10.83-12.67-2.33-20.24-5.57-32.05-9.98-27.55-10.27-56.72-17.32-85.17-27.33-4.86-1.71-11.79-6.15-15.87-7.38-28.02-8.43-58.06-20.08-84.02-32.98-1.92-.95-4.38-1.23-6.4-2.4-.71-.41-.75-1.8-1.79-2.15-2.68-.9-2.68,1.17-4.43-3.06l-3.21.61c-1.26-4.56-4.09-2.99-7.03-3.87-3.27-.98-6.55-2.83-9.59-3.91-2.4-.86-8.44-.79-9-4.13,8.18,2.47,16.52,4.46,24.75,6.75h0Z"/>
  <path class="st16" d="M1179.75,98.25c-6.19,5.5-12.12,12.96-18.36,18.77-19.14,17.86-39.9,36.22-60.39,52.48-13.31,10.56-27.41,20.15-41.25,30l-7.87,2.25c-7.56.67-16.6-.93-23.96.04-2.19.29-5.33,1.1-8.23,1.52-3.2.46-8.67,1.97-11.36,2.23-2.06.2-3.51-2.01-8.58-.42-4.3,1.35-4.12,1.9-8.99,2.64,35.14-19.23,68.27-41.76,100.09-66.03,3.01-2.29,5.72-5.18,8.66-7.47,1.38-1.08,2.84-2.4,4.5-3,25.38-9.17,47.9-19.61,71.97-31.91,1.22-.62,2.35-1.19,3.78-1.09h-.01Z"/>
  <path class="st4" d="M960.75,262.5c-21.95,12.48-44.04,24.87-66.75,36-16.23,7.95-32.95,15.22-49.5,22.5l-12.94,1.69c-18,3.01-36.96.58-54.11,1.38-31.54,1.48-62.89,3.13-94.61,3.65-13.86.23-28.1,1.11-41.94,1.5-12.35.35-26.35-.86-37.87,2.69-5.61,1.73-18.86-.97-25.13-1.19-5.6-.2-10.85.44-15.74.69-1.95.1-5.31-1.31-7.56-1.39-29.76-1.16-59.78,3.14-89.21,2.95-20.1-.13-40.15-1.74-59.99-1.43-18.57.29-37.88,2.21-55.91,1.46-.25-.01-.53.05-.75,0,.44-3.58-1.65-2.41-3-3-3-1.32-7.44-5.29-10.13-7.49-18.08-14.72-35.73-32.18-52.12-48.76,3.67,1.42,8.28,1.89,10.97,4.46,3.88-3.37,3.31-1.21,6.06-.84,1.19.16,2.31-.61,3.51-.55,16.63.83,32.97,2.06,49.61,2.21,12.93.11,25.16,2.65,37.55,3.04,7.46.23,15.02-.02,21.76.47,11.77.85,24.25-.14,35.23-.6,27.73-1.15,54.96-2.12,82.41,0,17.81,1.37,27.13,1.79,45.14-.4,1.47-.18,6.28-1.04,6.62-1.02,1.08.05,1.88,1.45,2.87,1.36,2.94-.26,5.01-.64,8.41-.64,4.84,0,10.2.59,15.01.05,1.7-.19,2.6-.26,2.59-2.29h2.25c0,3.55,4.87,1.77,7.12,1.46,1.39-.19,3.05.97,2.63-1.46h2.25v1.5h2.58s.42-1.5.42-1.5c42.34-.29,82.58-1.41,124.5-5.25,1.72-.16,3.53.16,5.25,0,.49-.05,1.01.05,1.5,0,9.97-.94,30.48-5.33,39-4.5.15.01,1.63,1.46,3,.75v-1.5c.48-.07,1.04.08,1.5,0,.52,4.23,2.98.88,4.91.77,2.47-.14,5.49,1.13,8.93.69,1.4-.18,2.71-1.5,3.79-1.44s1.84,1.41,2.87,1.35,3.13-1.65,4.81-1.94c11.28-1.96,24.74-.32,36.58-.92,17.34-.88,35.07-3.38,52.45-3.79,10.87-.25,22.02,2.19,32.97.72,3.37-.45,6.75-3.54,10.19-1.44h.02Z"/>
  <path class="st2" d="M363,259.5c14.71,2.88,29.25,7.04,44.09,9.53,34.23,5.75,68.64,7.45,103.31,8.44,1.77.05,3.41.77,5.19.81l95.66.72c.01,2.03-.89,2.1-2.59,2.29-4.81.53-10.16-.05-15.01-.05-3.4,0-5.46.38-8.41.64-.99.09-1.79-1.31-2.87-1.36-.35-.02-5.16.85-6.62,1.02-18.01,2.19-27.33,1.77-45.14.4-27.45-2.12-54.68-1.15-82.41,0-10.99.46-23.47,1.45-35.23.6-6.75-.49-14.3-.24-21.76-.47-12.39-.38-24.62-2.92-37.55-3.04-16.64-.15-32.98-1.38-49.61-2.21-1.2-.06-2.32.71-3.51.55-2.75-.38-2.18-2.54-6.06.84-2.69-2.56-7.3-3.03-10.97-4.46-6.59-6.67-13.15-13.32-19.5-20.25,4.17-2.02,9.08,1.75,13.14,1.58,2.67-.11,3.83-1.66,6.15-2.16,10.59-2.3,23.52.76,34.29,1.36,15.59.87,30.23,2.24,45.41,5.21h0Z"/>
  <path class="st1" d="M363,259.5c-15.18-2.97-29.82-4.34-45.41-5.21-10.78-.6-23.71-3.66-34.29-1.36-2.32.5-3.48,2.04-6.15,2.16-4.07.17-8.98-3.6-13.14-1.58-17.78-19.41-34.66-39.53-50.25-60.75-5.58-7.59-10.5-15.49-15.75-23.25,4.32,1.57,7.38,5.43,10.9,8.23,46,36.67,97.17,65.67,154.1,81.77h0Z"/>
  <path class="st8" d="M145.5,79.5c14.39,28.09,29.15,56.1,46.5,82.5-1.36-.09-2.32-.7-3.37-1.5-5.03-3.81-12.08-10.82-16.89-15.37-27.1-25.63-53.02-56.51-74.99-86.64l32.11,14.02c5.87,2,11.47,3.45,16.64,6.98h0Z"/>
  <path class="st2" d="M623.25,279c.42,2.43-1.23,1.27-2.63,1.46-2.26.31-7.12,2.08-7.12-1.46,3.24,0,6.51.01,9.75,0Z"/>
  <path class="st2" d="M628.5,279l-.42,1.51h-2.59v-1.51h3.01Z"/>
  <path class="st3" d="M1059.75,199.5c-32.23,22.94-64.48,43.37-99,63-3.44-2.11-6.81.98-10.19,1.44-10.95,1.47-22.1-.97-32.97-.72-17.38.41-35.11,2.91-52.45,3.79-11.84.6-25.3-1.04-36.58.92-1.68.29-3.82,1.87-4.81,1.94s-1.79-1.3-2.87-1.35-2.39,1.26-3.79,1.44c-3.44.44-6.46-.83-8.93-.69-1.93.11-4.39,3.46-4.91-.77,36.93-6.52,69.08-14.4,104.25-26.25,19.5-6.57,37.89-13,56.76-21.62,5.94-2.71,21.53-12.13,26.49-12.88s4.69-1.29,8.99-2.64c5.07-1.59,6.52.62,8.58.42,2.7-.26,8.17-1.77,11.36-2.23,2.9-.41,6.04-1.23,8.23-1.52,7.36-.97,16.4.64,23.96-.04l7.87-2.25h.01Z"/>
  <path class="st3" d="M801.75,268.5v1.5c-1.37.71-2.85-.73-3-.75.88-1.04,1.99-.6,3-.75Z"/>
  <path class="st12" d="M758.25,273.75v-1.49h1.12l.38,1.5c-.49.05-1.01-.05-1.5,0h0Z"/>
  <path class="st15" d="M348.75,333c-1.14-.25-2.39-2-3-3,1.35.59,3.44-.58,3,3Z"/>
  <path class="st10" d="M593.25,134.25c.83-1.46,4.37-.4,3.75,1.5-1.53-.41-2.83-1.25-3.75-1.5Z"/>
</svg>